<svg id="Capa_2" data-name="Capa 2" xmlns="http://www.w3.org/2000/svg" viewBox="0 0 434.78 436.55"><defs><style>.cls-1{fill:#505f79;}</style></defs><title>linkedin</title><rect class="cls-1" x="0.13" y="136.42" width="107.62" height="300.13" rx="15.92"/><circle class="cls-1" cx="53.94" cy="53.94" r="53.94"/><path class="cls-1" d="M7130.1,7386.46V7164.52a127,127,0,0,1,33.15-85.55l1.07-1.16c55.46-60.82,151.2-60.8,206.64,0h0a127,127,0,0,1,33.12,85.51v223.11a16.48,16.48,0,0,1-16.49,16.48H7313.7a16.48,16.48,0,0,1-16.48-16.48V7164.21l-2.52-3.73a31.61,31.61,0,0,0-53.25,1.26l-4.77,7.87v216.85a16.48,16.48,0,0,1-16.49,16.48h-73.61A16.48,16.48,0,0,1,7130.1,7386.46Z" transform="translate(-6969.3 -6966.39)"/></svg>